<svg width="24" height="24" viewBox="0 0 24 24" fill="none" xmlns="http://www.w3.org/2000/svg">
<path d="M16 8.3158C17.5913 8.3158 19.1174 8.98121 20.2426 10.1656C21.3679 11.3501 22 12.9565 22 14.6316V22H18V14.6316C18 14.0732 17.7893 13.5378 17.4142 13.1429C17.0391 12.7481 16.5304 12.5263 16 12.5263C15.4696 12.5263 14.9609 12.7481 14.5858 13.1429C14.2107 13.5378 14 14.0732 14 14.6316V22H10V14.6316C10 12.9565 10.6321 11.3501 11.7574 10.1656C12.8826 8.98121 14.4087 8.3158 16 8.3158ZM2 9.36843H6V22H2V9.36843Z" stroke="#3684DB" stroke-width="2" stroke-linecap="round" stroke-linejoin="round"/>
<path d="M4 6.21053C5.10457 6.21053 6 5.26797 6 4.10526C6 2.94256 5.10457 2 4 2C2.89543 2 2 2.94256 2 4.10526C2 5.26797 2.89543 6.21053 4 6.21053Z" stroke="#3684DB" stroke-width="2" stroke-linecap="round" stroke-linejoin="round"/>
</svg>
